<svg xmlns="http://www.w3.org/2000/svg" version="1.1" xmlns:xlink="http://www.w3.org/1999/xlink" xmlns:svgjs="http://svgjs.com/svgjs" width="700.000000pt" height="700.000000pt"><svg xmlns="http://www.w3.org/2000/svg" version="1.1" xmlns:xlink="http://www.w3.org/1999/xlink" xmlns:svgjs="http://svgjs.com/svgjs" width="700.000000pt" height="700.000000pt"><svg version="1.0" xmlns="http://www.w3.org/2000/svg" width="700.000000pt" height="700.000000pt" viewBox="0 0 700.000000 700.000000" preserveAspectRatio="xMidYMid meet">
<metadata>
Created by potrace 1.14, written by Peter Selinger 2001-2017
</metadata>
<g transform="translate(0.000000,700.000000) scale(0.100000,-0.100000)" fill="#000000" stroke="none">
<path d="M1109 6027 c-52 -20 -97 -57 -186 -155 -530 -584 -846 -1302 -914
-2077 -15 -174 -6 -571 16 -740 31 -232 98 -510 176 -726 137 -386 322 -714
588 -1049 70 -87 259 -278 294 -296 99 -52 235 -6 288 98 26 50 33 106 20 155
-12 43 -31 68 -173 230 -280 319 -473 650 -609 1043 -219 633 -221 1337 -5
1967 145 422 337 747 646 1093 62 69 119 139 128 155 35 67 16 180 -42 243
-51 57 -159 84 -227 59z"></path>
<path d="M5750 6028 c-90 -25 -143 -103 -144 -208 -1 -81 13 -108 108 -210
405 -433 678 -961 785 -1520 45 -233 54 -336 54 -595 0 -361 -39 -608 -145
-935 -138 -426 -342 -774 -668 -1140 -113 -128 -128 -150 -136 -214 -18 -126
87 -240 221 -240 78 0 112 18 201 110 413 423 722 982 873 1579 112 443 133
972 57 1417 -116 679 -401 1265 -869 1788 -153 172 -215 203 -337 168z"></path>
<path d="M1999 5082 c-121 -78 -343 -372 -469 -622 -37 -74 -90 -214 -131
-350 -180 -587 -79 -1277 263 -1801 118 -182 291 -375 363 -404 93 -40 216 1
270 89 25 42 30 60 30 117 0 61 -3 71 -38 120 -21 30 -70 90 -109 134 -179
202 -314 472 -384 771 -27 113 -29 131 -29 359 0 264 9 334 67 515 87 273 183
439 400 692 84 98 105 148 94 221 -23 150 -203 238 -327 159z"></path>
<path d="M4795 5089 c-84 -44 -119 -101 -119 -194 -1 -79 14 -106 131 -240 53
-60 116 -141 141 -179 78 -120 167 -307 210 -441 68 -212 77 -277 76 -540 0
-260 -12 -336 -83 -554 -75 -229 -183 -410 -383 -643 -105 -122 -121 -189 -70
-289 52 -103 184 -149 286 -99 93 45 297 292 423 514 118 207 235 548 265 777
18 142 15 480 -6 619 -34 226 -89 404 -190 615 -138 287 -373 602 -491 656
-55 26 -140 25 -190 -2z"></path>
<path d="M3405 4374 c-146 -23 -294 -78 -390 -144 -68 -47 -169 -144 -221
-214 -95 -125 -145 -258 -165 -429 -28 -249 56 -491 236 -685 106 -114 200
-177 347 -232 l55 -20 6 -257 c4 -141 7 -673 7 -1182 0 -537 4 -962 10 -1011
11 -98 25 -121 95 -165 42 -26 58 -30 121 -30 64 0 77 3 116 30 23 17 54 51
68 75 l25 45 6 1125 c4 619 7 1180 8 1247 l1 122 55 20 c286 107 496 339 567
629 27 111 29 294 5 395 -79 323 -327 577 -642 657 -78 20 -250 33 -310 24z"></path>
</g>
</svg><style>@media (prefers-color-scheme: light) { :root { filter: none; } }
</style></svg><style>@media (prefers-color-scheme: light) { :root { filter: none; } }
@media (prefers-color-scheme: dark) { :root { filter: invert(100%); } }
</style></svg>