<svg class="inset-0 m-0 h-full w-full pb-0 pt-0" version="1.0" viewBox="117.15 114.29 869.43 363.21">
  <path
    d="M547.5 115.1c-9.9 2.5-16.8 7.7-23.2 17.7-12.7 19.5-21.4 51.1-27.8 99.9-.5 4.2-.9 4.8-3 4.8-4.8 0-21.3 6.1-27.5 10.1-11.4 7.3-23.6 20.6-28.6 31.1-1.5 3.2-2.4 3.8-6.8 4.8-2.8.6-7.6 1.3-10.6 1.7l-5.5.5-1.8-8c-2.5-11.4-6.9-19.5-14.6-27.3-8.3-8.3-14.7-11-27.6-11.7-31.3-1.5-55.5 22.1-59.5 58.1-3.8 33.8 12.8 59.5 41.1 63.7 25 3.6 48.3-12.2 57.6-39.2 1.4-4 2.8-7.6 3.1-7.9.4-.4 4-.9 8-1.3l7.2-.6v5.2c0 23.7 10.9 39.7 29.5 43.5 6.7 1.3 8.3 1.3 15.1-.1 9.4-1.9 15.3-5.5 23.8-14.7l6.4-6.9 2.7 4.5c8.5 14.5 20.5 20.4 35 17 8-1.8 12.1-3.9 20.3-10l6.3-4.8 3 3.7c5 6 11.2 9.6 19.4 11.3 6.7 1.3 8.3 1.3 15.1-.1 9.4-1.9 15.3-5.5 23.8-14.7l6.4-6.9 2.7 4.5c3.7 6.5 8.1 11.2 12.9 14 14.2 8.3 31.3 3.8 49.6-13.2 4.3-4 8-7.3 8.3-7.3.3 0 1.8 2.4 3.5 5.3 8.3 14.7 22.4 21.1 40.9 18.6 11.3-1.5 25.6-8.8 32.7-16.8 1.1-1.1 2.3-2.1 2.7-2.1.5 0 3 2.1 5.6 4.6 9 8.6 18 12.5 33.1 14.3 20 2.4 41.7-3.6 58.1-16.1 3.3-2.5 3.5-2.4 5.6 2.2 1 2.2 3.9 6 6.5 8.4 14.4 13.4 34.6 4.3 45.1-20.3 3.5-8 3.6-6.1 1 10.2-1.8 10.6-2.2 12-4.8 14-32.5 25.5-51.9 46.2-60.3 64.2-4.4 9.4-6 16-6 25.4 0 8.6 2.1 14.8 6.9 20.3 6.1 6.9 11.9 9.3 22.6 9.3 7.7 0 9.8-.4 14.8-2.7 10.4-4.9 18-12.5 25.4-25.8 3.8-6.7 10.7-23.6 12.7-31.1.8-3 3-11.2 5-18.3 4.7-16.9 8.8-36.9 13.1-64.6 2-12.4 5.3-33.1 7.5-46 5.9-35.1 7.1-43.8 6.4-46.5-.8-3.3-5.2-4.8-12.9-4.3-10.9.7-14 4.3-18.6 21.8-9 33.7-24.3 63-33 63-1.8 0-3.2-.7-3.9-1.9-2.8-5.4.4-32.5 6.9-58.4 4.6-18.3 4.7-19.2 1.6-22.3-2.5-2.5-3.1-2.6-9.8-2.2-9.3.6-14.1 2.9-17.2 8.2-5.2 8.9-11.8 35.9-13 52.8-.3 5.1-.8 10.3-1.1 11.5-1.2 6-27.1 21.2-39.6 23.2-7.7 1.3-18.6 0-22.8-2.6-3.6-2.3-8-6.5-8-7.7 0-.6 3.7-2.2 8.3-3.5 16.1-4.6 31.5-13.3 37.8-21.4 13.2-16.6 12.8-40.8-.8-52.7-5.4-4.8-11.5-7.1-20.2-7.7-18.7-1.3-37.7 8.4-48.6 24.7-8.8 13.2-12.5 26.2-12.5 43.5v10.3l-6 5.5c-6.9 6.4-14.5 9.7-22.3 9.7-7.2 0-11.2-2.6-14.2-9.3-3.9-8.8-3.9-9.9 0-15 15.5-20.3 34.8-55.2 45.9-82.9 21.6-54 18.9-102.1-5.9-109.4-6.6-1.9-11.6-1.3-19.3 2.2-11.9 5.3-19.2 14-29.3 34.9-10.4 21.7-17.1 43.6-22.3 73.5-4.4 25.2-5.9 43.4-5.4 64.8l.5 19.2-8.6 8.8c-9.1 9.3-15.4 13.2-21.2 13.2-6.7-.1-11.3-7-13-20l-1.1-8 4.7-8c17.1-29.8 34.3-69.9 41.8-98 6.2-23.1 7.9-46.8 4.3-60.7-7-27.8-34.5-30.8-51.2-5.6-7.6 11.4-15.4 33-20.9 57.7-2.2 9.5-7.5 42.6-7.5 46.3 0 .7-1.1 1.3-2.5 1.3-4.8 0-21.2 6-27.5 10.1-22.1 14.3-35.4 37-37.6 64.4l-.7 8.6-5.6 4.6c-15.8 12.9-25 8.8-28.1-12.4l-1.2-8.2 5-8.8c23.2-40.9 39.9-83.5 45.8-116.3 2.3-12.9 2.4-33.4.1-42-2.3-8.8-7.9-16.7-13.8-19.8-4.8-2.4-10.8-3.5-14.4-2.6zm4.2 28.1c1.5 2.3 1.8 5.1 1.8 19.8 0 18.6-.9 24.4-7 45.3-4.6 15.8-19 53.2-20.5 53.2-.9 0 .9-26.5 3-46 5-45.2 12.8-75 19.6-75 .8 0 2.2 1.2 3.1 2.7zm132 0c1.4 2.1 1.9 5.3 2.2 14.9.5 19.3-2.2 35.1-10.5 59.9-5.7 17.2-16.9 44.5-17.8 43.3-.6-.6 1.4-27.7 3.4-45.8 5.1-45.7 12.7-75 19.6-75 .8 0 2.2 1.2 3.1 2.7zm85.7 1.3c1.9 3.1 2.1 5.1 2.1 17.5-.1 19.6-3.4 35.3-12.6 60-4.9 12.9-15.7 35.7-22.4 47l-4.7 8 .6-15c1.2-30.9 10.4-78.4 20.1-103.5 6.6-17.3 12.3-22 16.9-14zm66.9 119.9c4.6 1.8 6.7 5 6.7 10.3 0 6.5-1.9 10.7-7.1 15.7-5.9 5.6-23.5 13.8-25.5 11.8-1.3-1.3 1.9-17.8 4.6-23.4 5.3-11.2 14.1-17.1 21.3-14.4zm-342 22.8c.3 12.6.9 24.2 1.2 25.8.6 2.6-.1 4-4.4 9.5-6.3 8.2-10.2 11.1-15.7 11.8-10.2 1.1-14.4-4.6-14.4-19.6 0-15.7 6.1-30.3 17.3-41.1 4.3-4.2 11.8-9 14.3-9.1.8 0 1.3 6.8 1.7 22.7zm132 0c.3 12.6.9 24.2 1.2 25.8.6 2.6-.1 4-4.4 9.5-2.7 3.6-6.4 7.6-8.2 8.9-3.9 2.9-10.7 3.8-15 2.1-9.5-4-9.6-28-.4-46 2.6-5 9.7-13.8 13.5-16.8 3.1-2.4 10.1-6.1 11.6-6.2.8 0 1.3 6.8 1.7 22.7zm-258.1-12c.3 8.4.8 10.8 3.5 16.5 1.8 3.8 5.2 8.7 7.9 11.4l4.7 4.7-1.3 5.1c-3.2 12.8-11.3 20.6-21.2 20.6-8 0-14.3-6-17.3-16.4-2.1-7.2-1.6-24.4.9-32.3 1.8-5.6 6.5-12.4 10.7-15.6 2.3-1.7 7-3.3 10.5-3.6.8-.1 1.3 3.2 1.6 9.6zm564.4 123.9c-9.3 36.4-20.4 56.2-30.2 53.8-2.9-.7-5.4-5.5-5.4-10.3 0-5.2 3.6-14.9 8.6-22.8 4.7-7.6 27.7-32.3 28.9-31.1.3.3-.5 5-1.9 10.4zM226.5 140.5c-17.3 2.3-39.8 11.5-53.6 21.9-25.1 19.1-43.5 50.8-51.4 88.8-3.6 17.2-4.8 33.6-4.2 56.1.4 16.7.8 21.1 3 29.2 7 26.6 20.9 43.6 40.6 49.6 8.1 2.4 16.1 2.8 23 1 8.2-2.1 12.3-4.7 17.1-10.7 6.8-8.6 7.2-10.1 18.5-72.8 1.3-7.6 2.9-13.8 3.7-14.2.7-.5 3.3-.9 5.8-.9 5.3 0 19.8-3.1 29-6.1 18.5-6.1 37.5-19.7 47.1-33.5 4.3-6.3 9.3-16.8 11.5-24.4 2.8-9.7 2.6-30-.3-39.5-7.6-24-29.3-40.8-57.5-44.5-8.5-1.1-23.7-1.1-32.3 0zm23 29.2c12.7 2.4 22.1 9.5 27.3 20.7 2.1 4.5 2.7 7.5 3 15.7 1.1 28.7-13.3 47.2-42.6 54.4-5.1 1.3-9.5 2.1-9.8 1.7-.3-.3 1.3-11.5 3.6-24.9 5.3-30.5 5.7-34.5 3.6-38.6-2.7-5.2-5.9-6.7-14.5-6.6-8 0-10.8.9-15.3 5.2-3.9 3.6-5.1 8.2-10.4 38.2-2.5 14.6-4.7 26.7-4.9 26.9-.2.2-3.2-.2-6.7-.8-9.6-1.6-15.6.6-17.9 6.6-2.3 6 .1 14.2 4.8 16.6 1.6.9 5.5 2 8.7 2.6 3.3.6 6.1 1.3 6.4 1.6.5.4-2.5 18.2-7.4 44.4-3.3 17.5-5.6 22.1-11.3 22.1-2.7 0-8-4.6-11.3-10-2.6-4.2-6.5-16.1-7.9-24-2.9-16.3-.8-52.5 4.2-72.5 4.5-18 12.9-36.9 21.3-48.2 19.8-26.2 46-36.9 77.1-31.1z"
  />
</svg>
