<svg aria-hidden="true" focusable="false" data-prefix="fa-duotone" data-icon="bars" class="svg-inline--fa fa-bars fa-w-14" role="img" xmlns="http://www.w3.org/2000/svg" viewBox="0 0 448 512"><defs><style>.fa-secondary{opacity:.4}</style></defs><g class="fa-group"><path class="fa-primary" d="M416 384H31.1C14.33 384 0 398.3 0 415.1S14.33 448 31.1 448h384C433.7 448 448 433.7 448 416S433.7 384 416 384zM416 64H31.1C14.33 64 0 78.33 0 95.1S14.33 128 31.1 128h384C433.7 128 448 113.7 448 96S433.7 64 416 64z" fill="currentColor"/><path class="fa-secondary" d="M448 256c0 17.67-14.33 32-31.1 32H31.1C14.33 288 0 273.7 0 256s14.33-32 31.1-32h384C433.7 224 448 238.3 448 256z" fill="currentColor"/></g></svg>