<svg aria-hidden="true" focusable="false" data-prefix="fa-duotone" data-icon="ellipsis-vertical" class="svg-inline--fa fa-ellipsis-vertical fa-w-4" role="img" xmlns="http://www.w3.org/2000/svg" viewBox="0 0 128 512"><defs><style>.fa-secondary{opacity:.4}</style></defs><g class="fa-group"><path class="fa-primary" d="M128 64c0-35.39-28.62-64-64-64S0 28.61 0 64s28.62 64 64 64S128 99.39 128 64zM128 448c0-35.39-28.62-64-64-64s-64 28.61-64 64s28.62 64 64 64S128 483.4 128 448z" fill="currentColor"/><path class="fa-secondary" d="M128 256c0-35.39-28.62-64-64-64S0 220.6 0 256s28.62 64 64 64S128 291.4 128 256z" fill="currentColor"/></g></svg>