<?xml version="1.0" standalone="no"?>
<!DOCTYPE svg PUBLIC "-//W3C//DTD SVG 20010904//EN"
 "http://www.w3.org/TR/2001/REC-SVG-20010904/DTD/svg10.dtd">
<svg version="1.0" xmlns="http://www.w3.org/2000/svg"
 width="700.000000pt" height="700.000000pt" viewBox="0 0 700.000000 700.000000"
 preserveAspectRatio="xMidYMid meet">
<metadata>
Created by potrace 1.14, written by Peter Selinger 2001-2017
</metadata>
<g transform="translate(0.000000,700.000000) scale(0.100000,-0.100000)"
fill="#000000" stroke="none">
<path d="M1110 6024 c-49 -14 -101 -61 -222 -195 -432 -482 -731 -1103 -838
-1741 -22 -133 -24 -151 -37 -288 -15 -163 -8 -589 12 -711 2 -13 6 -46 10
-74 11 -92 16 -119 47 -260 76 -355 224 -732 402 -1029 36 -60 66 -111 66
-113 0 -2 4 -9 10 -16 5 -7 46 -64 91 -127 74 -105 182 -242 234 -296 173
-183 195 -200 275 -208 129 -12 244 102 233 233 -5 62 -24 96 -94 171 -320
343 -531 683 -682 1100 -64 177 -125 420 -143 565 -3 22 -7 47 -9 55 -2 8 -7
47 -10 85 -4 39 -8 90 -11 115 -5 54 -5 355 0 423 5 57 16 162 21 197 34 222
66 362 125 540 84 252 182 462 317 678 37 59 71 112 75 117 5 6 31 42 59 80
63 85 166 208 250 295 83 87 103 128 102 203 -3 145 -143 244 -283 201z"/>
<path d="M5743 6023 c-85 -29 -136 -105 -136 -203 -1 -79 12 -105 90 -186 86
-91 116 -125 189 -216 36 -46 73 -92 81 -102 22 -28 157 -234 184 -281 84
-149 165 -321 209 -441 26 -70 80 -233 85 -254 2 -8 13 -50 24 -93 40 -152 76
-377 86 -532 11 -171 5 -465 -11 -550 -2 -11 -6 -40 -9 -65 -7 -61 -13 -100
-19 -130 -3 -13 -8 -41 -11 -62 -3 -21 -19 -91 -36 -155 -134 -524 -386 -977
-768 -1382 -71 -76 -92 -116 -95 -180 -7 -151 137 -259 286 -215 37 11 64 32
137 107 136 139 331 384 418 527 318 518 486 1010 541 1590 14 154 6 632 -13
725 -2 11 -7 40 -10 65 -3 25 -7 56 -10 70 -3 14 -7 39 -10 55 -82 480 -285
971 -573 1385 -147 211 -383 478 -455 516 -42 22 -122 25 -174 7z"/>
<path d="M2046 5103 c-98 -25 -329 -302 -468 -561 -22 -42 -44 -81 -48 -87
-19 -27 -103 -254 -134 -361 -62 -218 -86 -412 -81 -644 3 -148 6 -185 31
-325 38 -220 138 -514 221 -647 13 -21 23 -40 23 -43 0 -3 23 -42 51 -88 132
-210 321 -424 395 -445 157 -45 300 67 289 224 -4 54 -29 101 -85 161 -25 26
-66 73 -90 103 -25 30 -48 57 -51 60 -4 3 -33 46 -64 95 -109 168 -203 392
-241 570 -32 147 -39 214 -39 370 0 150 7 247 25 335 6 30 14 68 17 85 7 44
71 232 99 293 13 29 24 55 24 57 0 3 11 23 25 45 14 22 22 40 19 40 -4 0 0 8
8 18 8 9 29 42 48 72 46 78 127 184 202 265 77 82 97 119 102 181 13 148 -130
264 -278 227z"/>
<path d="M4805 5091 c-74 -34 -119 -94 -129 -173 -10 -70 16 -132 83 -203 31
-33 74 -82 96 -110 22 -27 43 -52 46 -55 33 -26 184 -297 218 -390 8 -19 19
-48 26 -65 12 -28 51 -161 61 -208 33 -154 39 -221 39 -397 -1 -193 -17 -311
-66 -475 -11 -38 -22 -74 -23 -80 -2 -5 -7 -19 -11 -30 -5 -11 -16 -41 -26
-67 -66 -171 -202 -383 -340 -532 -76 -81 -99 -122 -104 -182 -13 -153 135
-267 287 -223 70 21 222 185 353 380 53 78 73 112 132 223 67 127 170 411 187
520 4 21 8 41 10 45 19 30 42 292 40 451 -4 351 -71 633 -225 947 -127 259
-363 570 -472 621 -54 25 -132 27 -182 3z"/>
<path d="M3338 4358 c-182 -37 -318 -109 -449 -238 -182 -180 -267 -393 -262
-656 7 -341 260 -684 583 -789 30 -9 59 -21 63 -25 5 -4 9 -560 9 -1235 0
-1347 -3 -1279 60 -1344 114 -116 294 -83 359 66 17 40 18 106 18 1274 0 677
4 1235 8 1239 4 4 26 13 48 20 257 79 483 313 563 585 128 433 -96 889 -518
1058 -154 61 -323 77 -482 45z"/>
</g>
</svg>
